<?xml version="1.0" standalone="no"?>
<!DOCTYPE svg PUBLIC "-//W3C//DTD SVG 20010904//EN"
 "http://www.w3.org/TR/2001/REC-SVG-20010904/DTD/svg10.dtd">
<svg version="1.0" xmlns="http://www.w3.org/2000/svg"
 width="980.000000pt" height="888.000000pt" viewBox="0 0 980.000000 888.000000"
 preserveAspectRatio="xMidYMid meet">
<metadata>
Created by potrace 1.16, written by Peter Selinger 2001-2019
</metadata>
<g transform="translate(0.000000,888.000000) scale(0.100000,-0.100000)"
fill="#E5E5E5" stroke="none">
<path d="M2030 8870 c-106 -9 -258 -33 -363 -56 -56 -13 -91 -31 -186 -94
-544 -366 -965 -872 -1211 -1455 -23 -55 -83 -187 -132 -294 -50 -107 -99
-219 -109 -250 -66 -188 -14 -361 203 -682 366 -542 410 -602 529 -719 200
-198 473 -343 723 -386 310 -53 553 -215 672 -447 19 -37 65 -160 103 -275
175 -524 286 -693 666 -1016 241 -205 373 -342 443 -456 49 -82 139 -383 176
-590 40 -222 66 -506 66 -714 0 -90 3 -117 13 -114 6 3 320 108 697 233 377
125 687 231 690 235 4 4 983 314 1186 375 10 3 79 164 172 406 27 69 66 152
88 185 58 88 188 219 379 382 307 262 421 395 536 624 64 128 96 208 175 447
75 222 112 301 187 389 136 161 317 260 562 307 67 13 157 35 200 50 301 103
563 313 769 615 55 80 154 224 220 320 162 234 237 362 276 467 29 76 33 101
33 183 1 108 -14 155 -110 358 -30 64 -95 209 -145 322 -96 221 -148 322 -241
470 -246 394 -628 779 -1024 1034 -79 51 -143 69 -363 102 -154 24 -418 24
-512 1 -91 -22 -192 -75 -270 -139 -110 -92 -208 -190 -214 -214 -10 -38 23
-160 62 -234 56 -106 141 -183 226 -204 38 -9 80 11 163 78 43 34 80 56 95 56
14 0 54 -18 90 -40 36 -22 72 -40 80 -40 8 0 56 37 105 81 151 136 219 163
304 120 48 -25 206 -164 247 -218 32 -42 74 -154 93 -252 6 -29 23 -146 36
-260 49 -399 65 -449 236 -719 75 -119 79 -129 79 -182 0 -109 -44 -122 -305
-90 -200 25 -352 23 -441 -4 -85 -27 -170 -91 -328 -249 -199 -200 -214 -208
-401 -218 -146 -8 -215 -22 -314 -64 -130 -54 -245 -134 -430 -299 -273 -244
-356 -296 -483 -304 -131 -8 -231 44 -401 207 -113 109 -174 187 -218 278 -26
56 -33 85 -45 210 -12 130 -12 148 2 175 34 65 130 133 176 124 70 -14 122 57
164 221 30 118 34 261 10 314 -9 19 -38 61 -65 93 -28 32 -58 75 -68 95 -24
48 -24 160 1 272 18 82 18 90 2 161 -40 180 -188 330 -386 392 -181 57 -502
79 -640 43 -36 -9 -102 -35 -146 -57 -100 -49 -191 -141 -237 -238 -39 -84
-40 -165 -3 -312 43 -175 32 -244 -60 -369 -61 -83 -69 -111 -62 -219 6 -84
32 -169 84 -274 39 -77 69 -102 115 -96 27 4 34 0 53 -31 54 -86 60 -116 64
-308 4 -165 2 -189 -17 -244 -27 -80 -71 -148 -132 -203 -76 -68 -274 -183
-348 -202 -145 -36 -272 21 -501 226 -389 348 -528 421 -844 439 -121 6 -136
9 -182 36 -27 16 -126 104 -220 195 -145 143 -181 172 -245 203 -125 61 -232
67 -519 31 -237 -29 -289 -14 -290 89 0 56 9 74 103 221 138 215 164 297 207
645 38 301 60 405 104 496 29 60 52 86 138 163 107 97 165 132 214 132 50 0
124 -45 223 -135 52 -47 102 -85 112 -85 9 0 48 19 87 41 86 50 98 48 179 -21
94 -81 132 -93 200 -65 120 50 230 220 249 382 l7 56 -94 90 c-162 155 -254
214 -382 246 -88 22 -259 32 -387 21z"/>
<path d="M8705 3699 c-327 -34 -777 -130 -1320 -280 -98 -27 -181 -52 -184
-54 -9 -10 47 -4 337 34 593 79 911 106 1150 98 174 -5 245 -18 294 -51 65
-43 43 -111 -74 -221 -478 -454 -2610 -1355 -5328 -2253 -217 -72 -440 -142
-495 -156 -300 -75 -798 -154 -1170 -186 -184 -15 -497 -13 -599 5 -145 25
-227 83 -211 147 31 118 490 432 1445 988 355 207 462 271 457 277 -6 6 -373
-142 -612 -248 -247 -108 -682 -326 -860 -430 -563 -328 -837 -598 -795 -782
25 -114 173 -202 411 -243 144 -25 519 -30 761 -10 1966 160 5176 1258 6703
2293 213 145 337 245 486 393 197 196 266 318 257 454 -6 98 -53 153 -165 196
-99 37 -295 49 -488 29z"/>
<path d="M9490 2868 c-252 -269 -893 -728 -1455 -1043 -77 -43 -183 -104 -235
-135 -733 -440 -1564 -775 -2710 -1093 -1217 -339 -2444 -531 -3530 -555 -356
-7 -337 -16 68 -31 884 -33 2036 92 3182 344 895 198 1509 386 2188 672 1033
434 2011 1018 2412 1439 98 104 143 183 166 294 15 71 12 192 -4 189 -4 -1
-41 -37 -82 -81z"/>
</g>
</svg>
